<svg xmlns="http://www.w3.org/2000/svg" xmlns:xlink="http://www.w3.org/1999/xlink" width="500" zoomAndPan="magnify" viewBox="0 0 375 374.999991" height="500" preserveAspectRatio="xMidYMid meet" version="1.0"><defs><g/><clipPath id="d0c2eb99b8"><path d="M 196 13.058594 L 229 13.058594 L 229 46 L 196 46 Z M 196 13.058594 " clip-rule="nonzero"/></clipPath><clipPath id="cd5ceef29c"><path d="M 69.304688 51 L 305.695312 51 L 305.695312 223.441406 L 69.304688 223.441406 Z M 69.304688 51 " clip-rule="nonzero"/></clipPath></defs><path fill="#f9e65c" d="M 225.429688 76.972656 C 247.988281 76.972656 259.792969 65.136719 259.792969 65.136719 L 245.039062 38.503906 C 245.039062 38.503906 233.234375 53.300781 211.105469 53.300781 C 188.976562 53.300781 171.269531 35.546875 171.269531 35.546875 C 171.269531 35.546875 179.492188 76.972656 225.429688 76.972656 Z M 225.429688 76.972656 " fill-opacity="1" fill-rule="nonzero"/><path fill="#f9e65c" d="M 227.335938 29.792969 L 213.390625 14.832031 L 197.828125 28.488281 L 211.769531 44.421875 Z M 227.335938 29.792969 " fill-opacity="1" fill-rule="nonzero"/><path fill="#f9e65c" d="M 255.367188 90.289062 C 235.308594 90.289062 224.027344 101.625 216.082031 114.308594 C 207.445312 128.089844 202.253906 140.589844 181.597656 140.589844 C 179.027344 140.589844 177.269531 140.421875 175.894531 140.0625 C 171.878906 135.328125 166.988281 131.375 161.457031 128.457031 C 174.019531 121.464844 181.597656 109.265625 181.597656 94.726562 C 181.597656 79.972656 167.578125 54.78125 137.339844 54.78125 C 107.101562 54.78125 93.078125 75.492188 93.078125 75.492188 L 110.78125 105.082031 C 110.78125 105.082031 127.011719 84.371094 147.664062 84.371094 C 161.015625 84.371094 166.84375 91.582031 166.84375 99.164062 C 166.84375 106.738281 160.945312 113.960938 149.140625 113.960938 C 138.824219 113.960938 131.4375 111 131.4375 111 L 137.339844 140.589844 C 165.613281 140.589844 169.796875 157.363281 169.796875 165.742188 C 169.796875 174.101562 165.976562 190.894531 134.386719 190.894531 C 82.554688 190.894531 72.457031 146.09375 72.457031 146.09375 C 72.457031 146.09375 72.421875 220.484375 138.8125 220.484375 C 165.703125 220.484375 187.5 198.625 187.5 171.660156 C 187.5 165.035156 186.167969 158.722656 183.785156 152.960938 C 187.121094 155.488281 194.566406 161.304688 208.15625 161.304688 C 237.210938 161.304688 237.660156 116.917969 264.21875 116.917969 C 281.921875 116.917969 287.824219 139.109375 287.824219 149.46875 C 287.824219 152.425781 289.296875 193.851562 252.414062 193.851562 C 217.007812 193.851562 207.417969 176.941406 205.203125 173.140625 C 205.203125 187.933594 219.957031 217.523438 253.890625 217.523438 C 296.675781 217.523438 302.578125 171.660156 302.578125 149.691406 C 302.578125 130.953125 295.417969 90.289062 255.367188 90.289062 Z M 255.367188 90.289062 " fill-opacity="1" fill-rule="nonzero"/><path fill="#f9e65c" d="M 225.429688 78.453125 C 178.820312 78.453125 169.90625 36.257812 169.824219 35.835938 C 169.699219 35.195312 170.003906 34.550781 170.574219 34.246094 C 171.152344 33.9375 171.855469 34.042969 172.316406 34.5 C 172.488281 34.671875 189.867188 51.820312 211.105469 51.820312 C 232.28125 51.820312 243.773438 37.722656 243.882812 37.578125 C 244.191406 37.195312 244.640625 36.980469 245.164062 37.027344 C 245.652344 37.070312 246.089844 37.351562 246.332031 37.785156 L 261.085938 64.414062 C 261.402344 64.992188 261.300781 65.710938 260.835938 66.179688 C 260.335938 66.679688 248.335938 78.453125 225.429688 78.453125 Z M 174.058594 39.988281 C 177.714844 50.664062 190.019531 75.492188 225.429688 75.492188 C 243.867188 75.492188 254.945312 67.339844 257.929688 64.824219 L 244.75 41.03125 C 240.910156 44.980469 229.527344 54.78125 211.105469 54.78125 C 194.5 54.78125 180.527344 45.261719 174.058594 39.988281 Z M 174.058594 39.988281 " fill-opacity="1" fill-rule="nonzero"/><g clip-path="url(#d0c2eb99b8)"><path fill="#f9e65c" d="M 211.769531 45.902344 C 211.746094 45.902344 211.71875 45.902344 211.699219 45.898438 C 211.296875 45.882812 210.925781 45.703125 210.660156 45.398438 L 196.71875 29.464844 C 196.460938 29.167969 196.328125 28.785156 196.355469 28.390625 C 196.382812 28 196.5625 27.632812 196.855469 27.375 L 212.414062 13.722656 C 213.015625 13.195312 213.921875 13.242188 214.464844 13.820312 L 228.410156 28.78125 C 228.964844 29.378906 228.9375 30.316406 228.34375 30.875 L 212.777344 45.503906 C 212.503906 45.761719 212.144531 45.902344 211.769531 45.902344 Z M 199.910156 28.628906 L 211.871094 42.296875 L 225.25 29.722656 L 213.28125 16.890625 Z M 199.910156 28.628906 " fill-opacity="1" fill-rule="nonzero"/></g><g clip-path="url(#cd5ceef29c)"><path fill="#f9e65c" d="M 138.8125 223.441406 C 102.9375 223.441406 85.964844 202.265625 78.042969 184.496094 C 69.59375 165.542969 69.503906 146.878906 69.503906 146.09375 C 69.503906 144.589844 70.632812 143.324219 72.121094 143.15625 C 73.628906 143.003906 74.996094 143.96875 75.328125 145.4375 C 75.726562 147.175781 85.621094 187.933594 134.386719 187.933594 C 162.628906 187.933594 166.84375 174.03125 166.84375 165.742188 C 166.84375 159.070312 163.96875 143.550781 137.339844 143.550781 C 135.929688 143.550781 134.722656 142.550781 134.445312 141.171875 L 128.546875 111.582031 C 128.332031 110.519531 128.722656 109.421875 129.546875 108.726562 C 130.378906 108.039062 131.523438 107.855469 132.527344 108.25 C 132.597656 108.277344 139.574219 111 149.140625 111 C 159.332031 111 163.894531 105.054688 163.894531 99.164062 C 163.894531 93.441406 159.628906 87.328125 147.664062 87.328125 C 128.667969 87.328125 113.253906 106.714844 113.101562 106.910156 C 112.503906 107.675781 111.574219 108.070312 110.597656 108.035156 C 109.628906 107.972656 108.75 107.441406 108.25 106.605469 L 90.546875 77.015625 C 89.957031 76.027344 89.992188 74.785156 90.636719 73.832031 C 91.246094 72.933594 105.898438 51.820312 137.339844 51.820312 C 170.703125 51.820312 184.550781 79.765625 184.550781 94.726562 C 184.550781 108.480469 178.261719 120.503906 167.128906 128.378906 C 170.953125 130.898438 174.417969 133.910156 177.476562 137.378906 C 178.515625 137.550781 179.851562 137.632812 181.597656 137.632812 C 198.449219 137.632812 203.695312 128.984375 210.957031 117.007812 C 211.808594 115.605469 212.675781 114.179688 213.582031 112.734375 C 220.414062 101.828125 232.183594 87.328125 255.367188 87.328125 C 292.390625 87.328125 305.527344 120.925781 305.527344 149.691406 C 305.527344 166.296875 301.804688 220.484375 253.890625 220.484375 C 217.84375 220.484375 202.253906 189.132812 202.253906 173.140625 C 202.253906 171.800781 203.148438 170.628906 204.433594 170.285156 C 205.707031 169.917969 207.082031 170.496094 207.75 171.648438 C 217.011719 187.566406 237.144531 190.894531 252.414062 190.894531 C 261.554688 190.894531 268.898438 188.148438 274.242188 182.734375 C 284.039062 172.808594 284.941406 156.414062 284.875 149.832031 L 284.871094 149.46875 C 284.871094 140.195312 279.671875 119.878906 264.21875 119.878906 C 252.855469 119.878906 246.941406 129.183594 240.085938 139.953125 C 232.839844 151.351562 224.628906 164.261719 208.15625 164.261719 C 199.808594 164.261719 193.5625 162.171875 189.109375 159.902344 C 190.003906 163.742188 190.449219 167.671875 190.449219 171.660156 C 190.449219 200.210938 167.285156 223.441406 138.8125 223.441406 Z M 77.617188 164.5 C 82.175781 185.691406 96.125 217.523438 138.8125 217.523438 C 164.03125 217.523438 184.550781 196.949219 184.550781 171.660156 C 184.550781 165.601562 183.378906 159.695312 181.058594 154.09375 C 180.546875 152.863281 180.925781 151.4375 181.980469 150.617188 C 183.035156 149.808594 184.5 149.796875 185.5625 150.597656 C 189 153.203125 195.785156 158.34375 208.15625 158.34375 C 221.390625 158.34375 228.058594 147.867188 235.113281 136.769531 C 242.246094 125.554688 249.621094 113.960938 264.21875 113.960938 C 284.28125 113.960938 290.773438 137.882812 290.773438 149.46875 L 290.777344 149.773438 C 290.851562 157.101562 289.796875 175.386719 278.433594 186.898438 C 271.941406 193.476562 263.183594 196.8125 252.414062 196.8125 C 238.914062 196.8125 221.894531 194.339844 210.214844 183.917969 C 215.121094 197.894531 229 214.566406 253.890625 214.566406 C 295.167969 214.566406 299.625 169.195312 299.625 149.691406 C 299.625 140.265625 297.488281 93.246094 255.367188 93.246094 C 239.734375 93.246094 228.386719 100.226562 218.578125 115.882812 C 217.6875 117.300781 216.835938 118.707031 216 120.085938 C 208.683594 132.152344 201.769531 143.550781 181.597656 143.550781 C 178.789062 143.550781 176.804688 143.359375 175.152344 142.929688 C 174.5625 142.773438 174.035156 142.445312 173.644531 141.980469 C 169.832031 137.484375 165.265625 133.816406 160.078125 131.074219 C 159.121094 130.570312 158.515625 129.574219 158.503906 128.488281 C 158.492188 127.402344 159.074219 126.394531 160.023438 125.871094 C 171.859375 119.28125 178.648438 107.929688 178.648438 94.726562 C 178.648438 82.230469 166.171875 57.738281 137.339844 57.738281 C 113.417969 57.738281 100.382812 71.136719 96.640625 75.691406 L 111.226562 100.078125 C 116.914062 94.003906 130.738281 81.410156 147.664062 81.410156 C 162.953125 81.410156 169.796875 90.328125 169.796875 99.164062 C 169.796875 107.714844 163.332031 116.917969 149.140625 116.917969 C 143.464844 116.917969 138.636719 116.074219 135.296875 115.253906 L 139.765625 137.671875 C 170.320312 138.707031 172.746094 159.3125 172.746094 165.742188 C 172.746094 174.191406 169.007812 193.851562 134.386719 193.851562 C 103 193.851562 86.183594 177.851562 77.617188 164.5 Z M 77.617188 164.5 " fill-opacity="1" fill-rule="nonzero"/></g><path fill="#f9e65c" d="M 219.527344 66.617188 C 216.832031 66.617188 214.085938 66.390625 210.882812 65.90625 C 210.078125 65.785156 209.523438 65.03125 209.644531 64.226562 C 209.761719 63.414062 210.519531 62.859375 211.320312 62.980469 C 214.378906 63.445312 216.984375 63.65625 219.527344 63.65625 C 228.585938 63.65625 236.945312 61.742188 244.367188 57.960938 C 245.101562 57.601562 245.984375 57.878906 246.355469 58.613281 C 246.722656 59.339844 246.429688 60.234375 245.707031 60.601562 C 237.863281 64.59375 229.058594 66.617188 219.527344 66.617188 Z M 219.527344 66.617188 " fill-opacity="1" fill-rule="nonzero"/><path fill="#f9e65c" d="M 200.777344 63.289062 C 200.605469 63.289062 200.4375 63.261719 200.269531 63.199219 C 198.113281 62.402344 196.070312 61.503906 194.195312 60.527344 C 193.472656 60.152344 193.1875 59.257812 193.566406 58.535156 C 193.941406 57.8125 194.828125 57.523438 195.554688 57.90625 C 197.320312 58.820312 199.25 59.671875 201.285156 60.425781 C 202.050781 60.707031 202.441406 61.558594 202.160156 62.324219 C 201.945312 62.921875 201.378906 63.289062 200.777344 63.289062 Z M 200.777344 63.289062 " fill-opacity="1" fill-rule="nonzero"/><path fill="#f9e65c" d="M 188.976562 57.140625 C 188.683594 57.140625 188.390625 57.054688 188.132812 56.875 C 187.082031 56.140625 186.058594 55.398438 185.105469 54.636719 C 184.46875 54.125 184.363281 53.195312 184.875 52.558594 C 185.382812 51.914062 186.3125 51.816406 186.945312 52.324219 C 187.851562 53.046875 188.820312 53.746094 189.820312 54.449219 C 190.492188 54.914062 190.652344 55.839844 190.1875 56.507812 C 189.898438 56.921875 189.4375 57.140625 188.976562 57.140625 Z M 188.976562 57.140625 " fill-opacity="1" fill-rule="nonzero"/><g fill="#f9e65c" fill-opacity="1"><g transform="translate(70.192435, 292.2129)"><g><path d="M 21.6875 -8.21875 C 21.6875 -5.5 20.695312 -3.378906 18.71875 -1.859375 C 16.75 -0.335938 14.070312 0.421875 10.6875 0.421875 C 7.03125 0.421875 4.210938 -0.0507812 2.234375 -1 L 2.234375 -4.453125 C 3.503906 -3.921875 4.882812 -3.5 6.375 -3.1875 C 7.875 -2.875 9.359375 -2.71875 10.828125 -2.71875 C 13.210938 -2.71875 15.007812 -3.171875 16.21875 -4.078125 C 17.4375 -4.992188 18.046875 -6.257812 18.046875 -7.875 C 18.046875 -8.945312 17.832031 -9.820312 17.40625 -10.5 C 16.976562 -11.1875 16.257812 -11.816406 15.25 -12.390625 C 14.238281 -12.972656 12.707031 -13.632812 10.65625 -14.375 C 7.78125 -15.394531 5.722656 -16.609375 4.484375 -18.015625 C 3.253906 -19.429688 2.640625 -21.273438 2.640625 -23.546875 C 2.640625 -25.921875 3.535156 -27.8125 5.328125 -29.21875 C 7.117188 -30.632812 9.484375 -31.34375 12.421875 -31.34375 C 15.492188 -31.34375 18.320312 -30.78125 20.90625 -29.65625 L 19.78125 -26.515625 C 17.226562 -27.585938 14.75 -28.125 12.34375 -28.125 C 10.4375 -28.125 8.945312 -27.710938 7.875 -26.890625 C 6.8125 -26.078125 6.28125 -24.945312 6.28125 -23.5 C 6.28125 -22.425781 6.472656 -21.546875 6.859375 -20.859375 C 7.253906 -20.179688 7.921875 -19.554688 8.859375 -18.984375 C 9.796875 -18.410156 11.234375 -17.78125 13.171875 -17.09375 C 16.410156 -15.9375 18.640625 -14.695312 19.859375 -13.375 C 21.078125 -12.050781 21.6875 -10.332031 21.6875 -8.21875 Z M 21.6875 -8.21875 "/></g></g></g><g fill="#f9e65c" fill-opacity="1"><g transform="translate(108.704125, 292.2129)"><g><path d="M 23.671875 0 L 19.828125 -9.828125 L 7.4375 -9.828125 L 3.640625 0 L 0 0 L 12.21875 -31.03125 L 15.234375 -31.03125 L 27.390625 0 Z M 18.703125 -13.0625 L 15.109375 -22.640625 C 14.640625 -23.847656 14.160156 -25.332031 13.671875 -27.09375 C 13.359375 -25.738281 12.914062 -24.253906 12.34375 -22.640625 L 8.703125 -13.0625 Z M 18.703125 -13.0625 "/></g></g></g><g fill="#f9e65c" fill-opacity="1"><g transform="translate(150.850435, 292.2129)"><g><path d="M 17.484375 -28.125 C 14.085938 -28.125 11.40625 -26.992188 9.4375 -24.734375 C 7.46875 -22.472656 6.484375 -19.378906 6.484375 -15.453125 C 6.484375 -11.410156 7.429688 -8.285156 9.328125 -6.078125 C 11.222656 -3.867188 13.925781 -2.765625 17.4375 -2.765625 C 19.59375 -2.765625 22.050781 -3.15625 24.8125 -3.9375 L 24.8125 -0.78125 C 22.664062 0.0195312 20.023438 0.421875 16.890625 0.421875 C 12.335938 0.421875 8.820312 -0.957031 6.34375 -3.71875 C 3.875 -6.476562 2.640625 -10.398438 2.640625 -15.484375 C 2.640625 -18.671875 3.234375 -21.460938 4.421875 -23.859375 C 5.617188 -26.253906 7.335938 -28.097656 9.578125 -29.390625 C 11.828125 -30.691406 14.472656 -31.34375 17.515625 -31.34375 C 20.753906 -31.34375 23.585938 -30.75 26.015625 -29.5625 L 24.5 -26.484375 C 22.15625 -27.578125 19.816406 -28.125 17.484375 -28.125 Z M 17.484375 -28.125 "/></g></g></g><g fill="#f9e65c" fill-opacity="1"><g transform="translate(192.912219, 292.2129)"><g><path d="M 7.84375 -12.84375 L 7.84375 0 L 4.25 0 L 4.25 -30.890625 L 12.71875 -30.890625 C 16.507812 -30.890625 19.3125 -30.164062 21.125 -28.71875 C 22.9375 -27.269531 23.84375 -25.085938 23.84375 -22.171875 C 23.84375 -18.085938 21.769531 -15.328125 17.625 -13.890625 L 26.015625 0 L 21.765625 0 L 14.28125 -12.84375 Z M 7.84375 -15.9375 L 12.765625 -15.9375 C 15.296875 -15.9375 17.15625 -16.4375 18.34375 -17.4375 C 19.53125 -18.445312 20.125 -19.960938 20.125 -21.984375 C 20.125 -24.023438 19.519531 -25.492188 18.3125 -26.390625 C 17.101562 -27.296875 15.171875 -27.75 12.515625 -27.75 L 7.84375 -27.75 Z M 7.84375 -15.9375 "/></g></g></g><g fill="#f9e65c" fill-opacity="1"><g transform="translate(234.424583, 292.2129)"><g><path d="M 21.46875 0 L 4.25 0 L 4.25 -30.890625 L 21.46875 -30.890625 L 21.46875 -27.703125 L 7.84375 -27.703125 L 7.84375 -17.75 L 20.640625 -17.75 L 20.640625 -14.578125 L 7.84375 -14.578125 L 7.84375 -3.21875 L 21.46875 -3.21875 Z M 21.46875 0 "/></g></g></g><g fill="#f9e65c" fill-opacity="1"><g transform="translate(273.253251, 292.2129)"><g><path d="M 28.90625 -15.75 C 28.90625 -10.644531 27.519531 -6.742188 24.75 -4.046875 C 21.988281 -1.347656 18.007812 0 12.8125 0 L 4.25 0 L 4.25 -30.890625 L 13.71875 -30.890625 C 18.519531 -30.890625 22.25 -29.554688 24.90625 -26.890625 C 27.570312 -24.234375 28.90625 -20.519531 28.90625 -15.75 Z M 25.109375 -15.625 C 25.109375 -19.644531 24.097656 -22.675781 22.078125 -24.71875 C 20.054688 -26.769531 17.050781 -27.796875 13.0625 -27.796875 L 7.84375 -27.796875 L 7.84375 -3.109375 L 12.21875 -3.109375 C 16.5 -3.109375 19.71875 -4.160156 21.875 -6.265625 C 24.03125 -8.367188 25.109375 -11.488281 25.109375 -15.625 Z M 25.109375 -15.625 "/></g></g></g><g fill="#f9e65c" fill-opacity="1"><g transform="translate(72.055716, 352.212896)"><g><path d="M 21.6875 -8.21875 C 21.6875 -5.5 20.695312 -3.378906 18.71875 -1.859375 C 16.75 -0.335938 14.070312 0.421875 10.6875 0.421875 C 7.03125 0.421875 4.210938 -0.0507812 2.234375 -1 L 2.234375 -4.453125 C 3.503906 -3.921875 4.882812 -3.5 6.375 -3.1875 C 7.875 -2.875 9.359375 -2.71875 10.828125 -2.71875 C 13.210938 -2.71875 15.007812 -3.171875 16.21875 -4.078125 C 17.4375 -4.992188 18.046875 -6.257812 18.046875 -7.875 C 18.046875 -8.945312 17.832031 -9.820312 17.40625 -10.5 C 16.976562 -11.1875 16.257812 -11.816406 15.25 -12.390625 C 14.238281 -12.972656 12.707031 -13.632812 10.65625 -14.375 C 7.78125 -15.394531 5.722656 -16.609375 4.484375 -18.015625 C 3.253906 -19.429688 2.640625 -21.273438 2.640625 -23.546875 C 2.640625 -25.921875 3.535156 -27.8125 5.328125 -29.21875 C 7.117188 -30.632812 9.484375 -31.34375 12.421875 -31.34375 C 15.492188 -31.34375 18.320312 -30.78125 20.90625 -29.65625 L 19.78125 -26.515625 C 17.226562 -27.585938 14.75 -28.125 12.34375 -28.125 C 10.4375 -28.125 8.945312 -27.710938 7.875 -26.890625 C 6.8125 -26.078125 6.28125 -24.945312 6.28125 -23.5 C 6.28125 -22.425781 6.472656 -21.546875 6.859375 -20.859375 C 7.253906 -20.179688 7.921875 -19.554688 8.859375 -18.984375 C 9.796875 -18.410156 11.234375 -17.78125 13.171875 -17.09375 C 16.410156 -15.9375 18.640625 -14.695312 19.859375 -13.375 C 21.078125 -12.050781 21.6875 -10.332031 21.6875 -8.21875 Z M 21.6875 -8.21875 "/></g></g></g><g fill="#f9e65c" fill-opacity="1"><g transform="translate(110.567406, 352.212896)"><g><path d="M 27.578125 -30.890625 L 27.578125 -10.90625 C 27.578125 -7.382812 26.515625 -4.613281 24.390625 -2.59375 C 22.265625 -0.582031 19.34375 0.421875 15.625 0.421875 C 11.894531 0.421875 9.015625 -0.585938 6.984375 -2.609375 C 4.953125 -4.640625 3.9375 -7.429688 3.9375 -10.984375 L 3.9375 -30.890625 L 7.53125 -30.890625 L 7.53125 -10.734375 C 7.53125 -8.160156 8.234375 -6.179688 9.640625 -4.796875 C 11.046875 -3.410156 13.113281 -2.71875 15.84375 -2.71875 C 18.457031 -2.71875 20.46875 -3.410156 21.875 -4.796875 C 23.28125 -6.191406 23.984375 -8.1875 23.984375 -10.78125 L 23.984375 -30.890625 Z M 27.578125 -30.890625 "/></g></g></g><g fill="#f9e65c" fill-opacity="1"><g transform="translate(156.834366, 352.212896)"><g><path d="M 13.765625 0 L 10.171875 0 L 10.171875 -27.703125 L 0.375 -27.703125 L 0.375 -30.890625 L 23.546875 -30.890625 L 23.546875 -27.703125 L 13.765625 -27.703125 Z M 13.765625 0 "/></g></g></g><g fill="#f9e65c" fill-opacity="1"><g transform="translate(195.536246, 352.212896)"><g><path d="M 7.84375 -12.84375 L 7.84375 0 L 4.25 0 L 4.25 -30.890625 L 12.71875 -30.890625 C 16.507812 -30.890625 19.3125 -30.164062 21.125 -28.71875 C 22.9375 -27.269531 23.84375 -25.085938 23.84375 -22.171875 C 23.84375 -18.085938 21.769531 -15.328125 17.625 -13.890625 L 26.015625 0 L 21.765625 0 L 14.28125 -12.84375 Z M 7.84375 -15.9375 L 12.765625 -15.9375 C 15.296875 -15.9375 17.15625 -16.4375 18.34375 -17.4375 C 19.53125 -18.445312 20.125 -19.960938 20.125 -21.984375 C 20.125 -24.023438 19.519531 -25.492188 18.3125 -26.390625 C 17.101562 -27.296875 15.171875 -27.75 12.515625 -27.75 L 7.84375 -27.75 Z M 7.84375 -15.9375 "/></g></g></g><g fill="#f9e65c" fill-opacity="1"><g transform="translate(237.04861, 352.212896)"><g><path d="M 23.671875 0 L 19.828125 -9.828125 L 7.4375 -9.828125 L 3.640625 0 L 0 0 L 12.21875 -31.03125 L 15.234375 -31.03125 L 27.390625 0 Z M 18.703125 -13.0625 L 15.109375 -22.640625 C 14.640625 -23.847656 14.160156 -25.332031 13.671875 -27.09375 C 13.359375 -25.738281 12.914062 -24.253906 12.34375 -22.640625 L 8.703125 -13.0625 Z M 18.703125 -13.0625 "/></g></g></g><g fill="#f9e65c" fill-opacity="1"><g transform="translate(279.194908, 352.212896)"><g><path d="M 21.6875 -8.21875 C 21.6875 -5.5 20.695312 -3.378906 18.71875 -1.859375 C 16.75 -0.335938 14.070312 0.421875 10.6875 0.421875 C 7.03125 0.421875 4.210938 -0.0507812 2.234375 -1 L 2.234375 -4.453125 C 3.503906 -3.921875 4.882812 -3.5 6.375 -3.1875 C 7.875 -2.875 9.359375 -2.71875 10.828125 -2.71875 C 13.210938 -2.71875 15.007812 -3.171875 16.21875 -4.078125 C 17.4375 -4.992188 18.046875 -6.257812 18.046875 -7.875 C 18.046875 -8.945312 17.832031 -9.820312 17.40625 -10.5 C 16.976562 -11.1875 16.257812 -11.816406 15.25 -12.390625 C 14.238281 -12.972656 12.707031 -13.632812 10.65625 -14.375 C 7.78125 -15.394531 5.722656 -16.609375 4.484375 -18.015625 C 3.253906 -19.429688 2.640625 -21.273438 2.640625 -23.546875 C 2.640625 -25.921875 3.535156 -27.8125 5.328125 -29.21875 C 7.117188 -30.632812 9.484375 -31.34375 12.421875 -31.34375 C 15.492188 -31.34375 18.320312 -30.78125 20.90625 -29.65625 L 19.78125 -26.515625 C 17.226562 -27.585938 14.75 -28.125 12.34375 -28.125 C 10.4375 -28.125 8.945312 -27.710938 7.875 -26.890625 C 6.8125 -26.078125 6.28125 -24.945312 6.28125 -23.5 C 6.28125 -22.425781 6.472656 -21.546875 6.859375 -20.859375 C 7.253906 -20.179688 7.921875 -19.554688 8.859375 -18.984375 C 9.796875 -18.410156 11.234375 -17.78125 13.171875 -17.09375 C 16.410156 -15.9375 18.640625 -14.695312 19.859375 -13.375 C 21.078125 -12.050781 21.6875 -10.332031 21.6875 -8.21875 Z M 21.6875 -8.21875 "/></g></g></g></svg>